<svg id="Layer_1" data-name="Layer 1" xmlns="http://www.w3.org/2000/svg" viewBox="0 0 25.58 20.29"><defs><style>.cls-1{fill:#fff;}</style></defs><title>dropdown</title><path class="cls-1" d="M37,17.86,25,25,13,17.86a1.62,1.62,0,0,1-.79-1.39h0a1.62,1.62,0,0,1,2.4-1.41L25,20.86l10.39-5.8a1.62,1.62,0,0,1,2.4,1.41h0A1.62,1.62,0,0,1,37,17.86Z" transform="translate(-12.21 -14.86)"/><path class="cls-1" d="M37,28,25,35.14,13,28a1.62,1.62,0,0,1-.79-1.39h0a1.62,1.62,0,0,1,2.4-1.41L25,31l10.39-5.8a1.62,1.62,0,0,1,2.4,1.41h0A1.62,1.62,0,0,1,37,28Z" transform="translate(-12.21 -14.86)"/></svg>