<svg id="Layer_1" data-name="Layer 1" xmlns="http://www.w3.org/2000/svg" viewBox="0 0 25.58 20.28"><defs><style>.cls-1{fill:#448aa6;}</style></defs><title>dropdown-blue</title><path class="cls-1" d="M24.79,3l-12,7.14L.79,3A1.62,1.62,0,0,1,0,1.61H0A1.62,1.62,0,0,1,2.4.2L12.79,6,23.18.2a1.62,1.62,0,0,1,2.4,1.41h0A1.62,1.62,0,0,1,24.79,3Z" transform="translate(0 0)"/><path class="cls-1" d="M24.79,13.14l-12,7.14-12-7.14A1.62,1.62,0,0,1,0,11.75H0a1.62,1.62,0,0,1,2.4-1.41l10.39,5.8,10.39-5.8a1.62,1.62,0,0,1,2.4,1.41h0A1.62,1.62,0,0,1,24.79,13.14Z" transform="translate(0 0)"/></svg>