<svg width="512" height="512" xmlns="http://www.w3.org/2000/svg">

 <g>
  <title>background</title>
  <rect fill="none" id="canvas_background" height="402" width="582" y="-1" x="-1"/>
 </g>
 <g>
  <title>Layer 1</title>
  <path id="svg_2" d="m437.017,74.982c-46.357,-46.341 -110.284,-74.982 -181.015,-74.982c-70.736,0 -134.663,28.641 -181.01,74.982c-46.361,46.357 -74.992,110.425 -74.992,181.015c0,70.736 28.631,134.663 74.992,181.02c46.347,46.346 110.274,74.983 181.01,74.983c70.731,0 134.658,-28.637 181.015,-74.983c46.351,-46.357 74.983,-110.284 74.983,-181.02c0,-70.59 -28.632,-134.658 -74.983,-181.015z"/>
  <path stroke="null" id="svg_4" fill="#FFFFFF" d="m255.999996,90.105424c-91.218806,0 -165.886923,74.647236 -165.886923,165.888315c0,91.232727 74.668118,165.900844 165.886923,165.900844c91.255,0 165.886923,-74.668118 165.886923,-165.900844c0,-91.241079 -73.802231,-165.888315 -165.886923,-165.888315zm76.312189,239.711428c-3.303456,4.976761 -9.115477,6.648674 -14.097806,3.33269c-38.994139,-24.072209 -87.937624,-29.054539 -145.984056,-15.786425c-5.7981,1.673305 -10.781822,-2.472371 -12.432853,-7.456093c-1.659384,-5.812021 2.480724,-10.773469 7.470014,-12.432853c63.009272,-14.113119 117.75921,-8.308058 160.890673,18.258796c5.827334,2.473763 6.648674,9.122437 4.154029,14.083885zm19.91122,-45.626108c-4.140108,5.818982 -11.596201,8.292745 -17.416575,4.140108c-44.783887,-27.360352 -112.824212,-35.66841 -165.051663,-19.046725c-6.641714,1.652424 -14.090846,-1.680266 -15.764151,-8.315019c-1.644071,-6.627793 1.673305,-14.092238 8.287177,-15.75719c60.548038,-18.244875 135.193882,-9.122437 186.613914,22.391943c5.011563,2.487684 7.485327,10.795743 3.331298,16.586883zm23.228596,-50.5973c-4.166558,5.813413 -14.113119,8.315019 -21.54833,4.154029c-53.119787,-31.508812 -141.84534,-34.838718 -192.455169,-19.067606c-8.278824,2.487684 -16.593843,-2.494645 -19.059254,-9.966051c-2.523879,-8.285785 2.465411,-16.586883 9.95909,-19.074567c58.881693,-17.423535 155.913912,-14.097806 217.305563,22.391943c7.464445,4.154029 9.945169,14.113119 5.7981,21.562251z"/>
 </g>
</svg>