<svg id="Layer_1" data-name="Layer 1" xmlns="http://www.w3.org/2000/svg" viewBox="0 0 9.36 9.36"><defs><style>.cls-1{fill:#1f1f1f;}</style></defs><title>ig</title><path class="cls-1" d="M0,2.8V6.56a2.8,2.8,0,0,0,2.8,2.8H6.56a2.8,2.8,0,0,0,2.8-2.8V2.8A2.8,2.8,0,0,0,6.56,0H2.8A2.8,2.8,0,0,0,0,2.8ZM6.54,8.54H2.75a2,2,0,0,1-2-2V2.75a2,2,0,0,1,2-2H6.54a2,2,0,0,1,2,2V6.54A2,2,0,0,1,6.54,8.54Z" transform="translate(0 0)"/><path class="cls-1" d="M4.68,2.31A2.37,2.37,0,1,0,7.05,4.68,2.37,2.37,0,0,0,4.68,2.31Zm0,4A1.64,1.64,0,1,1,6.32,4.68,1.64,1.64,0,0,1,4.68,6.32Z" transform="translate(0 0)"/><circle class="cls-1" cx="7.21" cy="2.24" r="0.5"/></svg>