<svg id="Layer_1" data-name="Layer 1" xmlns="http://www.w3.org/2000/svg" viewBox="0 0 618.28 438.3"><defs><style>.cls-1{fill:#fff;}.cls-2{fill:none;}</style></defs><title>logoWhite</title><g id="Layer_1-2" data-name="Layer 1-2"><g id="_1470019252496" data-name=" 1470019252496"><path class="cls-1" d="M0,26.66C2.94,14.35,7.26.08,24.46.08L75.74,0C69,8.89,68.56,24.54,68.64,30.89l1,258.43C69.64,302,74,317,91.16,316.79l62.2-.08c16.14-.49,20-4.4,28.94-9.7-2.2,6.2-7.42,37.34-36.11,37.34l-130.6.08c4.73-8.8,8.48-19.89,8.48-27.8L22.18,41.82C22.09,35.38,17.2,27.06,0,26.66Z"/><path class="cls-1" d="M0,26.66C2.94,14.35,7.26.08,24.46.08L75.74,0C69,8.89,68.56,24.54,68.64,30.89l1,258.43C69.64,302,74,317,91.16,316.79l62.2-.08c16.14-.49,20-4.4,28.94-9.7-2.2,6.2-7.42,37.34-36.11,37.34l-130.6.08c4.73-8.8,8.48-19.89,8.48-27.8L22.18,41.82C22.09,35.38,17.2,27.06,0,26.66Z"/><path class="cls-1" d="M126.52,146.17c.33-11.9,11.25-24.54,18.34-24.54l45.08.41c-2.77,7.66-4.48,14.27.65,26.25L233.72,281l45.16-115.44c2.53-6.52,1.22-21.11-21.6-19.4,1.63-12.47,12.23-25.44,19.32-25.19l52.5.08C282.64,219,221,479.27,117.88,432.8c-8.23-3.75-25-16.39-23.4-29.84,12.39,12.23,70.52,41.25,116.82-67.75L150.74,159.7C147.8,151.79,141.69,146,126.52,146.17Z"/><path class="cls-1" d="M126.52,146.17c.33-11.9,11.25-24.54,18.34-24.54l45.08.41c-2.77,7.66-4.48,14.27.65,26.25L233.72,281l45.16-115.44c2.53-6.52,1.22-21.11-21.6-19.4,1.63-12.47,12.23-25.44,19.32-25.19l52.5.08C282.64,219,221,479.27,117.88,432.8c-8.23-3.75-25-16.39-23.4-29.84,12.39,12.23,70.52,41.25,116.82-67.75L150.74,159.7C147.8,151.79,141.69,146,126.52,146.17Z"/><path class="cls-1" d="M330.17,146.5c-.73-10.27,6.68-23,14.67-24.86,16-.41,29.67-.41,40.27-4.4-1.3,15-1.79,28.86-.9,40.92,16.3-37.91,24.62-42.64,70.93-40.19-1.88,13.7-8.32,33.75-18.18,36-18.59,4.32-46.79,1.55-47.53,32.53l.41,92.28c-.08,28.13,5.22,44.27,17.36,43-.08,6.93-6.93,19.73-13,20.14l-54.62,2c3.83-6.2,7.34-19.16,8.15-30.41L347,160.68Q347.53,146.37,330.17,146.5Z"/><path class="cls-1" d="M330.17,146.5c-.73-10.27,6.68-23,14.67-24.86,16-.41,29.67-.41,40.27-4.4-1.3,15-1.79,28.86-.9,40.92,16.3-37.91,24.62-42.64,70.93-40.19-1.88,13.7-8.32,33.75-18.18,36-18.59,4.32-46.79,1.55-47.53,32.53l.41,92.28c-.08,28.13,5.22,44.27,17.36,43-.08,6.93-6.93,19.73-13,20.14l-54.62,2c3.83-6.2,7.34-19.16,8.15-30.41L347,160.68Q347.53,146.37,330.17,146.5Z"/><path class="cls-2" d="M481.31,261.2c.16,7.17.57,17.94,4.08,29.19,5.79,18.42,16.39,27.23,25.52,28.29,8.64,1,27,3.83,39-11.49,10.52-13.45,11.9-43.78,10.84-52.75C557.82,231.53,539.64,213,525,211.72c-11.74-1-25,4.4-32,13.7C485.31,235.76,481,246.36,481.31,261.2Z"/><path class="cls-1" d="M601.8,302c2-99.87,13.37-184.81-82.91-187.18-40.52-1-56.58,8.64-62,34.57,30.73-12,111.69-19.08,101.82,46.79-1,6.85-22.34-11.09-38.48-13.86-21.44-3.75-34.08.65-47,10C451.38,208,439.81,235,439.64,265c-.33,56.58,46.14,87.64,70.52,86.17,27.39-1.71,40.6-16.79,52-30.16l.08,26.09,34.84-1.13c10-.57,18.42-14.43,21.2-25.19C611.34,320.22,603,320.89,601.8,302Zm-51.93,5.18v0c-12,15.33-30.33,12.47-39,11.49-9.13-1.06-19.73-9.86-25.52-28.29-3.51-11.25-3.91-22-4.08-29.19-.33-14.84,4-25.44,11.66-35.79,6.93-9.29,20.22-14.67,32-13.7,14.67,1.3,32.85,19.81,35.79,42.72C561.78,263.4,560.39,293.73,549.87,307.18Z"/></g></g></svg>