<?xml version="1.0" encoding="UTF-8"?>
<!DOCTYPE svg PUBLIC "-//W3C//DTD SVG 1.1//EN" "http://www.w3.org/Graphics/SVG/1.1/DTD/svg11.dtd">
<!-- Creator: CorelDRAW X8 -->
<svg xmlns="http://www.w3.org/2000/svg" xml:space="preserve" width="218.113mm" height="194.213mm" version="1.1" style="shape-rendering:geometricPrecision; text-rendering:geometricPrecision; image-rendering:optimizeQuality; fill-rule:evenodd; clip-rule:evenodd"
viewBox="0 0 7584 6753"
 xmlns:xlink="http://www.w3.org/1999/xlink">
 <defs>
  <style type="text/css">
   <![CDATA[
    .fil0 {fill:black}
    .fil1 {fill:black;fill-rule:nonzero}
   ]]>
  </style>
 </defs>
 <g id="Layer_x0020_1">
  <metadata id="CorelCorpID_0Corel-Layer"/>
  <g id="_1470019252496">
   <path class="fil0" d="M0 327c36,-151 89,-326 300,-326l629 -1c-83,109 -88,301 -87,379l12 3170c0,155 53,339 264,337l763 -1c198,-6 245,-54 355,-119 -27,76 -91,458 -443,458l-1602 1c58,-108 104,-244 104,-341l-23 -3371c-1,-79 -61,-181 -272,-186z"/>
   <path class="fil0" d="M0 327c36,-151 89,-326 300,-326l629 -1c-83,109 -88,301 -87,379l12 3170c0,155 53,339 264,337l763 -1c198,-6 245,-54 355,-119 -27,76 -91,458 -443,458l-1602 1c58,-108 104,-244 104,-341l-23 -3371c-1,-79 -61,-181 -272,-186z"/>
   <path class="fil0" d="M1552 1793c4,-146 138,-301 225,-301l553 5c-34,94 -55,175 8,322l529 1628 554 -1416c31,-80 15,-259 -265,-238 20,-153 150,-312 237,-309l644 1c-570,1201 -1326,4394 -2591,3824 -101,-46 -306,-201 -287,-366 152,150 865,506 1433,-831l-743 -2153c-36,-97 -111,-168 -297,-166z"/>
   <path class="fil0" d="M1552 1793c4,-146 138,-301 225,-301l553 5c-34,94 -55,175 8,322l529 1628 554 -1416c31,-80 15,-259 -265,-238 20,-153 150,-312 237,-309l644 1c-570,1201 -1326,4394 -2591,3824 -101,-46 -306,-201 -287,-366 152,150 865,506 1433,-831l-743 -2153c-36,-97 -111,-168 -297,-166z"/>
   <path class="fil0" d="M4050 1797c-9,-126 82,-282 180,-305 196,-5 364,-5 494,-54 -16,184 -22,354 -11,502 200,-465 302,-523 870,-493 -23,168 -102,414 -223,441 -228,53 -574,19 -583,399l5 1132c-1,345 64,543 213,528 -1,85 -85,242 -159,247l-670 24c47,-76 90,-235 100,-373l-9 -1874c4,-117 -65,-175 -207,-174z"/>
   <path class="fil0" d="M4050 1797c-9,-126 82,-282 180,-305 196,-5 364,-5 494,-54 -16,184 -22,354 -11,502 200,-465 302,-523 870,-493 -23,168 -102,414 -223,441 -228,53 -574,19 -583,399l5 1132c-1,345 64,543 213,528 -1,85 -85,242 -159,247l-670 24c47,-76 90,-235 100,-373l-9 -1874c4,-117 -65,-175 -207,-174z"/>
   <path class="fil0" d="M6439 2597c180,16 403,243 439,524 13,110 -4,482 -133,647 -147,188 -372,153 -478,141 -112,-13 -242,-121 -313,-347 -43,-138 -48,-270 -50,-358 -4,-182 49,-312 143,-439 85,-114 248,-180 392,-168zm-74 -1189c1181,29 1041,1071 1017,2296 15,232 117,224 202,230 -34,132 -138,302 -260,309l-426 14 -1 -320c-140,164 -302,349 -638,370 -299,18 -869,-363 -865,-1057 2,-368 144,-698 412,-891 158,-115 313,-169 576,-123 198,34 460,254 472,170 121,-808 -872,-721 -1249,-574 66,-318 263,-436 760,-424z"/>
   <path class="fil0" d="M6439 2597c180,16 403,243 439,524 13,110 -4,482 -133,647 -147,188 -372,153 -478,141 -112,-13 -242,-121 -313,-347 -43,-138 -48,-270 -50,-358 -4,-182 49,-312 143,-439 85,-114 248,-180 392,-168zm-74 -1189c1181,29 1041,1071 1017,2296 15,232 117,224 202,230 -34,132 -138,302 -260,309l-426 14 -1 -320c-140,164 -302,349 -638,370 -299,18 -869,-363 -865,-1057 2,-368 144,-698 412,-891 158,-115 313,-169 576,-123 198,34 460,254 472,170 121,-808 -872,-721 -1249,-574 66,-318 263,-436 760,-424z"/>
   <path class="fil1" d="M313 6578l155 19c2,18 8,31 18,37 12,10 33,15 60,15 36,0 63,-5 80,-16 12,-7 21,-19 27,-34 5,-12 7,-32 7,-63l0 -75c-41,56 -92,84 -154,84 -69,0 -124,-30 -164,-88 -31,-46 -47,-103 -47,-172 0,-86 20,-152 62,-197 41,-46 93,-69 154,-69 64,0 116,28 157,84l0 -72 127 0 0 461c0,60 -5,106 -15,136 -9,30 -23,53 -41,70 -19,17 -43,31 -73,40 -30,10 -68,15 -114,15 -87,0 -149,-15 -185,-45 -37,-30 -55,-67 -55,-113 0,-5 0,-10 1,-17zm121 -301c0,55 10,95 32,120 21,25 47,38 78,38 33,0 61,-13 84,-39 23,-26 34,-65 34,-116 0,-53 -11,-92 -33,-118 -22,-26 -49,-39 -83,-39 -33,0 -59,13 -80,38 -22,26 -32,64 -32,116zm575 -89l-123 -23c13,-49 37,-86 71,-110 34,-23 84,-36 151,-36 61,0 106,8 135,22 30,14 51,33 63,55 12,22 18,62 18,121l-1 159c0,45 2,78 6,100 4,21 13,44 25,69l-135 0c-3,-10 -8,-23 -13,-41 -2,-8 -4,-13 -5,-16 -23,23 -48,40 -74,51 -27,11 -55,17 -85,17 -53,0 -94,-14 -125,-43 -30,-29 -45,-65 -45,-109 0,-29 7,-55 20,-77 14,-23 34,-40 59,-52 25,-12 61,-23 108,-32 63,-12 107,-23 132,-33l0 -14c0,-26 -7,-45 -20,-56 -13,-11 -37,-17 -73,-17 -24,0 -43,5 -56,15 -14,9 -25,26 -33,50zm182 110c-18,6 -45,13 -83,21 -38,8 -62,16 -74,23 -18,13 -27,29 -27,48 0,19 7,36 22,50 14,13 32,20 54,20 24,0 48,-8 70,-24 16,-12 27,-27 32,-45 4,-11 6,-33 6,-66l0 -27zm375 247l-136 0 0 -514 126 0 0 73c21,-34 41,-57 58,-68 17,-11 37,-17 59,-17 31,0 61,9 89,26l-42 119c-23,-15 -44,-23 -64,-23 -19,0 -35,6 -48,16 -13,10 -23,29 -31,57 -8,27 -11,85 -11,172l0 159zm184 -147l137 -21c5,27 17,47 35,60 18,14 42,21 74,21 36,0 62,-6 80,-19 12,-9 18,-22 18,-37 0,-10 -4,-19 -10,-25 -7,-7 -22,-13 -45,-18 -110,-24 -180,-46 -209,-66 -40,-28 -61,-67 -61,-116 0,-44 18,-82 53,-112 35,-30 89,-46 163,-46 71,0 123,12 157,35 34,23 58,57 70,101l-128 24c-5,-20 -15,-35 -31,-46 -15,-11 -37,-16 -65,-16 -36,0 -62,5 -77,15 -10,7 -16,16 -16,28 0,9 5,18 14,24 12,9 54,22 127,39 72,16 123,36 151,60 29,24 43,58 43,101 0,47 -20,88 -59,121 -39,34 -98,51 -175,51 -70,0 -125,-14 -166,-43 -40,-28 -67,-66 -80,-115zm545 -118c0,-45 11,-88 33,-131 22,-42 54,-74 95,-96 40,-22 86,-34 136,-34 78,0 142,26 191,76 50,51 75,114 75,191 0,78 -25,142 -75,193 -51,52 -114,77 -190,77 -47,0 -92,-11 -134,-32 -43,-21 -76,-52 -98,-93 -22,-41 -33,-91 -33,-151zm139 8c0,51 12,90 36,117 25,27 54,40 90,40 35,0 65,-13 89,-40 24,-27 36,-67 36,-118 0,-50 -12,-89 -36,-116 -24,-27 -54,-41 -89,-41 -36,0 -65,14 -90,41 -24,27 -36,66 -36,117zm851 -100l-123 -23c14,-49 37,-86 71,-110 34,-23 84,-36 151,-36 61,0 106,8 136,22 29,14 50,33 62,55 12,22 18,62 18,121l-1 159c0,45 2,78 6,100 5,21 13,44 25,69l-135 0c-3,-10 -8,-23 -13,-41 -2,-8 -3,-13 -4,-16 -24,23 -49,40 -75,51 -26,11 -55,17 -85,17 -52,0 -94,-14 -124,-43 -31,-29 -46,-65 -46,-109 0,-29 7,-55 21,-77 13,-23 33,-40 58,-52 25,-12 61,-23 108,-32 63,-12 107,-23 132,-33l0 -14c0,-26 -7,-45 -20,-56 -12,-11 -37,-17 -72,-17 -25,0 -44,5 -57,15 -14,9 -24,26 -33,50zm182 110c-18,6 -45,13 -83,21 -37,8 -62,16 -74,23 -17,13 -26,29 -26,48 0,19 7,36 21,50 14,13 32,20 54,20 25,0 48,-8 70,-24 17,-12 27,-27 33,-45 3,-11 5,-33 5,-66l0 -27zm241 -267l127 0 0 76c16,-26 38,-47 66,-63 28,-16 59,-25 94,-25 59,0 110,24 151,71 42,46 63,111 63,195 0,86 -21,152 -63,200 -42,47 -93,71 -152,71 -29,0 -55,-6 -78,-17 -23,-11 -47,-30 -72,-58l0 259 -136 0 0 -709zm134 248c0,58 12,100 35,128 22,27 50,41 83,41 32,0 58,-12 79,-38 21,-25 31,-66 31,-124 0,-54 -10,-94 -32,-120 -22,-26 -48,-39 -80,-39 -33,0 -61,13 -83,38 -22,26 -33,64 -33,114zm553 -91l-123 -23c14,-49 38,-86 72,-110 34,-23 84,-36 150,-36 61,0 106,8 136,22 29,14 50,33 62,55 12,22 19,62 19,121l-2 159c0,45 2,78 7,100 4,21 12,44 24,69l-134 0c-4,-10 -8,-23 -13,-41 -3,-8 -4,-13 -5,-16 -23,23 -48,40 -75,51 -26,11 -54,17 -84,17 -53,0 -95,-14 -125,-43 -31,-29 -46,-65 -46,-109 0,-29 7,-55 21,-77 14,-23 33,-40 58,-52 25,-12 61,-23 108,-32 64,-12 108,-23 132,-33l0 -14c0,-26 -6,-45 -19,-56 -13,-11 -37,-17 -73,-17 -24,0 -43,5 -57,15 -13,9 -24,26 -33,50zm182 110c-17,6 -45,13 -83,21 -37,8 -62,16 -73,23 -18,13 -27,29 -27,48 0,19 7,36 21,50 14,13 32,20 54,20 25,0 48,-8 70,-24 17,-12 28,-27 33,-45 3,-11 5,-33 5,-66l0 -27zm375 247l-136 0 0 -514 126 0 0 73c22,-34 41,-57 59,-68 17,-11 36,-17 58,-17 31,0 61,9 90,26l-42 119c-23,-15 -44,-23 -64,-23 -19,0 -35,6 -48,16 -14,10 -24,29 -32,57 -7,27 -11,85 -11,172l0 159zm334 -357l-123 -23c14,-49 38,-86 71,-110 34,-23 85,-36 151,-36 61,0 106,8 136,22 29,14 50,33 62,55 12,22 18,62 18,121l-1 159c0,45 2,78 7,100 4,21 12,44 24,69l-134 0c-4,-10 -8,-23 -14,-41 -2,-8 -3,-13 -4,-16 -24,23 -48,40 -75,51 -26,11 -54,17 -84,17 -53,0 -95,-14 -125,-43 -31,-29 -46,-65 -46,-109 0,-29 7,-55 21,-77 14,-23 33,-40 58,-52 25,-12 61,-23 108,-32 63,-12 108,-23 132,-33l0 -14c0,-26 -6,-45 -19,-56 -13,-11 -37,-17 -73,-17 -25,0 -43,5 -57,15 -13,9 -24,26 -33,50zm182 110c-17,6 -45,13 -83,21 -37,8 -62,16 -74,23 -17,13 -26,29 -26,48 0,19 7,36 21,50 14,13 32,20 54,20 25,0 48,-8 70,-24 17,-12 28,-27 33,-45 3,-11 5,-33 5,-66l0 -27zm480 -267l0 108 -93 0 0 207c0,42 1,67 3,74 2,7 6,12 12,17 6,4 14,7 23,7 13,0 31,-5 55,-14l11 106c-31,13 -67,20 -107,20 -24,0 -47,-4 -66,-12 -20,-8 -34,-19 -43,-32 -10,-13 -16,-31 -20,-53 -2,-16 -4,-48 -4,-96l0 -224 -62 0 0 -108 62 0 0 -102 136 -79 0 181 93 0zm410 514l0 -77c-19,27 -43,49 -74,64 -30,16 -62,24 -96,24 -35,0 -66,-8 -93,-23 -27,-15 -47,-36 -60,-63 -12,-28 -18,-66 -18,-114l0 -325 136 0 0 236c0,72 2,116 7,133 5,16 15,29 28,38 13,10 30,15 50,15 23,0 44,-7 62,-19 19,-13 31,-29 38,-48 7,-19 10,-65 10,-138l0 -217 136 0 0 514 -126 0zm-263 -598l0 -90 312 0 0 90 -312 0zm637 598l-135 0 0 -514 126 0 0 73c21,-34 41,-57 58,-68 17,-11 37,-17 59,-17 31,0 60,9 89,26l-42 119c-23,-15 -44,-23 -64,-23 -19,0 -35,6 -48,16 -13,10 -24,29 -31,57 -8,27 -12,85 -12,172l0 159zm335 -357l-124 -23c14,-49 38,-86 72,-110 34,-23 84,-36 151,-36 60,0 105,8 135,22 30,14 50,33 63,55 12,22 18,62 18,121l-2 159c0,45 2,78 7,100 4,21 12,44 24,69l-134 0c-4,-10 -8,-23 -13,-41 -2,-8 -4,-13 -5,-16 -23,23 -48,40 -74,51 -27,11 -55,17 -85,17 -53,0 -95,-14 -125,-43 -31,-29 -46,-65 -46,-109 0,-29 7,-55 21,-77 14,-23 33,-40 58,-52 25,-12 61,-23 108,-32 64,-12 108,-23 132,-33l0 -14c0,-26 -6,-45 -19,-56 -13,-11 -37,-17 -73,-17 -24,0 -43,5 -57,15 -13,9 -24,26 -32,50zm181 110c-17,6 -45,13 -82,21 -38,8 -63,16 -74,23 -18,13 -27,29 -27,48 0,19 7,36 21,50 15,13 33,20 54,20 25,0 48,-8 71,-24 16,-12 27,-27 32,-45 4,-11 5,-33 5,-66l0 -27z"/>
  </g>
 </g>
</svg>
