<?xml version="1.0" standalone="no"?>
<!DOCTYPE svg PUBLIC "-//W3C//DTD SVG 20010904//EN"
 "http://www.w3.org/TR/2001/REC-SVG-20010904/DTD/svg10.dtd">
<svg version="1.0" xmlns="http://www.w3.org/2000/svg"
 width="2400.000000pt" height="2382.000000pt" viewBox="0 0 2400.000000 2382.000000"
 preserveAspectRatio="xMidYMid meet">
<metadata>
Created by potrace 1.15, written by Peter Selinger 2001-2017
</metadata>
<g transform="translate(0.000000,2382.000000) scale(0.100000,-0.100000)"
fill="#000000" stroke="none">
<path d="M9260 23809 c-2429 -144 -4671 -1150 -6385 -2864 -896 -895 -1606
-1945 -2098 -3100 -444 -1044 -699 -2139 -767 -3300 -13 -219 -13 -890 0
-1110 57 -986 254 -1942 585 -2841 861 -2338 2578 -4267 4795 -5388 1676 -848
3533 -1192 5430 -1005 1497 147 2960 648 4240 1454 l154 96 2840 -2839 c2089
-2088 2853 -2846 2886 -2863 73 -36 139 -49 255 -49 320 1 729 192 1110 521
153 131 1155 1145 1245 1259 229 288 388 598 436 847 18 94 18 272 0 338 -7
28 -23 70 -35 95 -17 33 -781 803 -2882 2905 -1572 1573 -2859 2864 -2859
2868 0 5 35 68 79 141 1542 2590 1798 5817 684 8631 -610 1543 -1600 2903
-2893 3975 -1112 922 -2489 1616 -3892 1959 -595 146 -1183 233 -1823 271
-196 11 -906 11 -1105 -1z m900 -3269 c1488 -84 2839 -628 3960 -1594 147
-126 450 -426 589 -581 845 -945 1384 -2073 1590 -3330 61 -370 76 -577 76
-1045 0 -444 -9 -577 -61 -940 -146 -1022 -541 -2009 -1147 -2863 -387 -544
-897 -1065 -1437 -1467 -1022 -760 -2214 -1195 -3510 -1281 -222 -15 -789 -6
-1000 15 -1976 200 -3695 1214 -4815 2841 -529 768 -901 1694 -1055 2627 -200
1211 -59 2439 409 3576 625 1515 1848 2780 3346 3460 957 435 2034 640 3055
582z"/>
</g>
</svg>
