<?xml version="1.0" ?><!DOCTYPE svg  PUBLIC '-//W3C//DTD SVG 1.1//EN'  'http://www.w3.org/Graphics/SVG/1.1/DTD/svg11.dtd'><svg enable-background="new 0 0 512 512" height="512px" id="Layer_1" version="1.1" viewBox="0 0 512 512" width="512px" xml:space="preserve" xmlns="http://www.w3.org/2000/svg" xmlns:xlink="http://www.w3.org/1999/xlink"><g><path d="M437.018,74.985C390.661,28.629,326.734,0,256.003,0C185.267,0,121.34,28.629,74.993,74.985   C28.631,121.341,0,185.268,0,256s28.631,134.661,74.993,181.014C121.34,483.368,185.267,512,256.003,512   c70.731,0,134.658-28.632,181.015-74.986C483.369,390.661,512,326.732,512,256S483.369,121.341,437.018,74.985z"/><path clip-rule="evenodd" d="M316.39,245.37c-0.848-12.047-5.25-22.967-14.171-31.042   c-9.219-8.795-19.993-12.337-32.186-12.337c-12.47,0-22.82,3.542-31.888,12.337c-9.077,8.504-15.6,18.995-16.448,31.042H316.39z    M311.14,158.477c20.836,10.347,24.38,12.049,39.829,30.618C363.727,154.364,343.319,145.579,311.14,158.477L311.14,158.477z    M203.981,349.271c-22.542-14.035-30.196-25.094-39.41-49.896C139.344,348.419,146.997,374.646,203.981,349.271L203.981,349.271z    M221.278,275.563c0,8.363,3.397,15.308,7.366,22.537c4.109,7.796,10.34,14.033,18.145,18.564c7.648,4.824,16.02,7.093,25.38,7.093   c9.209-0.141,17.716-2.269,25.642-7.093c7.942-4.531,13.329-11.619,18.155-19.415h60.665   c-7.937,22.111-21.265,41.106-40.683,54.859c-19.559,14.03-41.252,21.26-65.062,21.26c-17.721,0-35.018-3.971-50.462-11.627   c-35.583,17.3-61.089,18.15-76.689,2.696c-6.381-5.243-8.921-14.035-8.921-25.655c0-11.627,2.126-25.233,6.796-39.407   c4.821-14.604,12.192-30.194,22.961-47.91c8.371-14.038,14.177-24.668,37.563-47.205c8.795-8.646,12.48-12.899,14.742-15.166   c-20.841,10.062-47.478,28.633-69.172,47.771c12.899-32.181,31.044-48.619,53.162-62.372c23.81-14.315,43.368-23.956,69.167-23.956   c2.555,0,5.246,0,8.365,0.424c18.993-8.502,36.285-12.896,51.739-14.174c15.595-0.851,26.505,1.701,32.887,7.653   c13.183,13.186,14.025,33.88,3.539,61.948c10.067,17.294,10.486,36.709,10.486,56.697c0,4.824,0.429,9.214,0,12.899h-56.272   h-99.499V275.563z" fill="#FFFFFF" fill-rule="evenodd"/></g></svg>